<?xml version="1.0" encoding="utf-8"?>
<svg version="1.1" id="svg1" width="3000" height="1590" viewBox="0 0 3000 1590" xmlns="http://www.w3.org/2000/svg">
  <g id="g1">
    <g id="g2">
      <path style="fill:#61edcc" d="M 480,660 V 540 h 15 15 v -15 -15 h 90 90 v 15 15 h 15 15 v 15 15 h 15 15 v 7.5 7.5 H 727.5 705 v -15 -15 h -15 -15 v -15 -15 h -75 -75 v 15 15 H 510 495 V 667.5 780 h -7.5 -7.5 z m 300,0 V 540 h 15 15 v -15 -15 h 105 105 v 7.5 7.5 H 922.5 825 v 15 15 H 810 795 V 667.5 780 h -7.5 -7.5 z m 180,60 v -60 h 7.5 7.5 v 60 60 h -7.5 -7.5 z m 120,30 v -30 h 45 45 v -75 -75 h 7.5 7.5 v 82.5 82.5 h -45 -45 v 22.5 22.5 h -7.5 -7.5 z M 1350,645 V 510 h 45 45 v 15 15 h 7.5 7.5 v 7.5 7.5 h 7.5 7.5 v 15 15 h 7.5 7.5 v 7.5 7.5 h 15 15 v -7.5 -7.5 h 7.5 7.5 v -15 -15 h 7.5 7.5 v -7.5 -7.5 h 7.5 7.5 v -15 -15 h 45 45 v 7.5 7.5 h -37.5 -37.5 v 15 15 h -7.5 -7.5 v 7.5 7.5 h -7.5 -7.5 v 15 15 h -7.5 -7.5 v 7.5 7.5 h -30 -30 v -7.5 -7.5 h -7.5 -7.5 v -15 -15 h -7.5 -7.5 v -7.5 -7.5 h -7.5 -7.5 v -15 -15 h -30 -30 V 652.5 780 h -7.5 -7.5 z m 330,15 V 540 h 15 15 v -15 -15 h 105 105 v 7.5 7.5 h -97.5 -97.5 v 15 15 h -15 -15 V 667.5 780 h -7.5 -7.5 z m 600,-15 V 510 h 45 45 v 7.5 7.5 H 2332.5 2295 V 652.5 780 h -7.5 -7.5 z m -300,0 V 540 h 15 15 v -15 -15 h 105 105 v 7.5 7.5 h -97.5 -97.5 v 15 15 h -15 -15 v 97.5 97.5 h -7.5 -7.5 z m -750,82.5 V 720 h 37.5 37.5 v 7.5 7.5 H 1267.5 1230 Z M 570,705 v -15 h 37.5 37.5 v -7.5 -7.5 h 7.5 7.5 v -45 -45 h 7.5 7.5 v 60 60 h -7.5 -7.5 v 7.5 7.5 h -45 -45 z m 1500,7.5 V 705 h 45 45 V 637.5 570 h 7.5 7.5 v 75 75 H 2122.5 2070 Z M 870,630 v -15 h 45 45 V 592.5 570 h 7.5 7.5 V 607.5 645 H 922.5 870 Z m 900,0 v -15 h 45 45 V 592.5 570 h 7.5 7.5 v 37.5 37.5 h -52.5 -52.5 z m 600,7.5 V 630 h 45 45 v -60 -60 h 45 45 v 7.5 7.5 h -37.5 -37.5 v 60 60 H 2422.5 2370 Z M 1080,540 v -30 h 120 120 v 7.5 7.5 H 1207.5 1095 v 22.5 22.5 h -7.5 -7.5 z" id="path9"/>
      <path style="fill:#f6e904" d="m 1950,975 v -45 h -15 -15 v -15 -15 h 15 15 v 15 15 h 15 15 v 45 45 h -15 -15 z" id="path8"/>
      <path style="fill:#ead000" d="m 1920,990 v -60 h 15 15 v 60 60 h -15 -15 z" id="path7"/>
      <path style="fill:#c89c06" d="m 1890,1035 v -15 h -15 -15 v -60 -60 h 30 30 v 15 15 h -15 -15 v 45 45 h 15 15 v 15 15 h -15 -15 z" id="path6"/>
      <path style="fill:#3e9590" d="M 510,727.5 V 720 h 7.5 7.5 v 7.5 7.5 h -7.5 -7.5 z m 30,0 V 720 h 7.5 7.5 v 7.5 7.5 h -7.5 -7.5 z m 30,0 V 720 h 7.5 7.5 v 7.5 7.5 h -7.5 -7.5 z m 30,0 V 720 h 7.5 7.5 v 7.5 7.5 h -7.5 -7.5 z m 30,0 V 720 h 7.5 7.5 v 7.5 7.5 h -7.5 -7.5 z m 30,0 V 720 h 7.5 7.5 v 7.5 7.5 h -7.5 -7.5 z m 30,0 V 720 h 7.5 7.5 v 7.5 7.5 h -7.5 -7.5 z m 120,0 V 720 h 7.5 7.5 v 7.5 7.5 h -7.5 -7.5 z m 30,0 V 720 h 7.5 7.5 v 7.5 7.5 h -7.5 -7.5 z m 150,0 V 720 h 7.5 7.5 v 7.5 7.5 h -7.5 -7.5 z m 30,0 V 720 h 7.5 7.5 v 7.5 7.5 h -7.5 -7.5 z m 180,0 V 720 h 7.5 7.5 v 7.5 7.5 h -7.5 -7.5 z m 180,0 V 720 h 7.5 7.5 v 7.5 7.5 h -7.5 -7.5 z m 30,0 V 720 h 7.5 7.5 v 7.5 7.5 h -7.5 -7.5 z m 150,0 V 720 h 7.5 7.5 v 7.5 7.5 h -7.5 -7.5 z m 30,0 V 720 h 7.5 7.5 v 7.5 7.5 h -7.5 -7.5 z m 30,0 V 720 h 7.5 7.5 v 7.5 7.5 h -7.5 -7.5 z m 90,0 V 720 h 7.5 7.5 v 7.5 7.5 h -7.5 -7.5 z m 30,0 V 720 h 7.5 7.5 v 7.5 7.5 h -7.5 -7.5 z m 120,0 V 720 h 7.5 7.5 v 7.5 7.5 h -7.5 -7.5 z m 30,0 V 720 h 7.5 7.5 v 7.5 7.5 h -7.5 -7.5 z m 30,0 V 720 h 7.5 7.5 v 7.5 7.5 h -7.5 -7.5 z m 90,0 V 720 h 7.5 7.5 v 7.5 7.5 h -7.5 -7.5 z m 30,0 V 720 h 7.5 7.5 v 7.5 7.5 h -7.5 -7.5 z m 30,0 V 720 h 7.5 7.5 v 7.5 7.5 h -7.5 -7.5 z m 30,0 V 720 h 7.5 7.5 v 7.5 7.5 h -7.5 -7.5 z m 30,0 V 720 h 7.5 7.5 v 7.5 7.5 h -7.5 -7.5 z m 30,0 V 720 h 7.5 7.5 v 7.5 7.5 h -7.5 -7.5 z m 30,0 V 720 h 7.5 7.5 v 7.5 7.5 h -7.5 -7.5 z m 30,0 V 720 h 7.5 7.5 v 7.5 7.5 h -7.5 -7.5 z m 90,0 V 720 h 7.5 7.5 v 7.5 7.5 h -7.5 -7.5 z m 30,0 V 720 h 7.5 7.5 v 7.5 7.5 h -7.5 -7.5 z m 120,0 V 720 h 7.5 7.5 v 7.5 7.5 h -7.5 -7.5 z m 30,0 V 720 h 7.5 7.5 v 7.5 7.5 h -7.5 -7.5 z m 30,0 V 720 h 7.5 7.5 v 7.5 7.5 h -7.5 -7.5 z M 510,697.5 V 690 h -7.5 -7.5 v -7.5 -7.5 h 7.5 7.5 V 667.5 660 H 502.5 495 V 607.5 555 h 15 15 v -15 -15 h 75 75 v 15 15 h 15 15 v 15 15 h 22.5 22.5 v 37.5 37.5 h -7.5 -7.5 v 7.5 7.5 h 7.5 7.5 v 7.5 7.5 h -7.5 -7.5 v 7.5 7.5 h -7.5 -7.5 v -7.5 -7.5 h -7.5 -7.5 v 7.5 7.5 h -7.5 -7.5 v -7.5 -7.5 h -7.5 -7.5 v -7.5 -7.5 h 7.5 7.5 V 667.5 660 H 682.5 675 V 622.5 585 H 660 645 V 577.5 570 H 607.5 570 v 45 45 h -7.5 -7.5 v 7.5 7.5 h 7.5 7.5 v 7.5 7.5 h -7.5 -7.5 v 7.5 7.5 h -7.5 -7.5 v -7.5 -7.5 h -7.5 -7.5 v 7.5 7.5 h -7.5 -7.5 z m 15,-15 V 675 h 7.5 7.5 v 7.5 7.5 h 7.5 7.5 v -7.5 -7.5 h -7.5 -7.5 v -7.5 -7.5 h 7.5 7.5 v -7.5 -7.5 h -7.5 -7.5 v 7.5 7.5 h -7.5 -7.5 v -7.5 -7.5 h -7.5 -7.5 v 7.5 7.5 h 7.5 7.5 v 7.5 7.5 h -7.5 -7.5 v 7.5 7.5 h 7.5 7.5 z m 180,0 V 675 h 7.5 7.5 v 7.5 7.5 h 7.5 7.5 v -7.5 -7.5 h -7.5 -7.5 v -7.5 -7.5 h 7.5 7.5 v -7.5 -7.5 h -7.5 -7.5 v 7.5 7.5 h -7.5 -7.5 v -7.5 -7.5 h -7.5 -7.5 v 7.5 7.5 h 7.5 7.5 v 7.5 7.5 h -7.5 -7.5 v 7.5 7.5 h 7.5 7.5 z m -180,-60 V 615 h -7.5 -7.5 v 7.5 7.5 h 7.5 7.5 z m 30,0 V 615 h -7.5 -7.5 v 7.5 7.5 h 7.5 7.5 z m 150,0 V 615 h -7.5 -7.5 v 7.5 7.5 h 7.5 7.5 z m 30,0 V 615 h -7.5 -7.5 v 7.5 7.5 h 7.5 7.5 z m 75,75 V 690 h -7.5 -7.5 v -7.5 -7.5 h 7.5 7.5 V 667.5 660 H 802.5 795 V 607.5 555 h 15 15 v -15 -15 h 97.5 97.5 v 7.5 7.5 h 15 15 v 60 60 h -7.5 -7.5 v 7.5 7.5 h 7.5 7.5 v 7.5 7.5 h -7.5 -7.5 v 7.5 7.5 h -7.5 -7.5 v -7.5 -7.5 h -7.5 -7.5 v 7.5 7.5 h -7.5 -7.5 v -7.5 -7.5 h -7.5 -7.5 v -7.5 -7.5 h 7.5 7.5 V 667.5 660 H 982.5 975 V 615 570 H 922.5 870 v 45 45 h -7.5 -7.5 v 7.5 7.5 h 7.5 7.5 v 7.5 7.5 h -7.5 -7.5 v 7.5 7.5 h -7.5 -7.5 v -7.5 -7.5 h -7.5 -7.5 v 7.5 7.5 h -7.5 -7.5 z m 15,-15 V 675 h 7.5 7.5 v 7.5 7.5 h 7.5 7.5 v -7.5 -7.5 h -7.5 -7.5 v -7.5 -7.5 h 7.5 7.5 v -7.5 -7.5 h -7.5 -7.5 v 7.5 7.5 h -7.5 -7.5 v -7.5 -7.5 h -7.5 -7.5 v 7.5 7.5 h 7.5 7.5 v 7.5 7.5 h -7.5 -7.5 v 7.5 7.5 h 7.5 7.5 z m 180,0 V 675 h 7.5 7.5 v 7.5 7.5 h 7.5 7.5 v -7.5 -7.5 h -7.5 -7.5 v -7.5 -7.5 h 7.5 7.5 v -7.5 -7.5 h -7.5 -7.5 v 7.5 7.5 h -7.5 -7.5 v -7.5 -7.5 h -7.5 -7.5 v 7.5 7.5 h 7.5 7.5 v 7.5 7.5 h -7.5 -7.5 v 7.5 7.5 h 7.5 7.5 z m -180,-60 V 615 h -7.5 -7.5 v 7.5 7.5 h 7.5 7.5 z m 30,0 V 615 h -7.5 -7.5 v 7.5 7.5 h 7.5 7.5 z m 150,0 V 615 h -7.5 -7.5 v 7.5 7.5 h 7.5 7.5 z m 30,0 V 615 h -7.5 -7.5 v 7.5 7.5 h 7.5 7.5 z m 165,75 V 690 h -7.5 -7.5 v -7.5 -7.5 h 7.5 7.5 v -7.5 -7.5 h -7.5 -7.5 v -45 -45 h -45 -45 V 547.5 525 h 112.5 112.5 v 22.5 22.5 h -45 -45 v 45 45 h -7.5 -7.5 v 7.5 7.5 h 7.5 7.5 v 7.5 7.5 h -7.5 -7.5 v 7.5 7.5 h -7.5 -7.5 z m 15,-15 V 675 h -7.5 -7.5 v 7.5 7.5 h 7.5 7.5 z m 0,-30 V 645 h -7.5 -7.5 v 7.5 7.5 h 7.5 7.5 z m 0,-30 V 615 h -7.5 -7.5 v 7.5 7.5 h 7.5 7.5 z m 165,75 V 690 h -7.5 -7.5 v -7.5 -7.5 h 7.5 7.5 v -7.5 -7.5 h -7.5 -7.5 V 592.5 525 h 30 30 v 15 15 h 7.5 7.5 v 7.5 7.5 h 7.5 7.5 v 15 15 h 7.5 7.5 v 15 15 h 7.5 7.5 v -7.5 -7.5 h 7.5 7.5 v 7.5 7.5 h 7.5 7.5 v -7.5 -7.5 h 7.5 7.5 v -7.5 -7.5 h 7.5 7.5 v -15 -15 h 7.5 7.5 v -7.5 -7.5 h 7.5 7.5 v -15 -15 h 37.5 37.5 v 67.5 67.5 h -7.5 -7.5 v 7.5 7.5 h 7.5 7.5 v 7.5 7.5 h -7.5 -7.5 v 7.5 7.5 h -7.5 -7.5 v -7.5 -7.5 h -7.5 -7.5 v 7.5 7.5 h -7.5 -7.5 v -7.5 -7.5 h -7.5 -7.5 v 7.5 7.5 h -7.5 -7.5 v -7.5 -7.5 h 7.5 7.5 v -7.5 -7.5 h -7.5 -7.5 v -7.5 -7.5 h -7.5 -7.5 v -7.5 -7.5 h -7.5 -7.5 v 7.5 7.5 h -7.5 -7.5 v 7.5 7.5 h 7.5 7.5 v 7.5 7.5 h -7.5 -7.5 v 7.5 7.5 h -7.5 -7.5 v -7.5 -7.5 h -7.5 -7.5 v -7.5 -7.5 h -7.5 -7.5 v -7.5 -7.5 h -7.5 -7.5 v -7.5 -7.5 h -7.5 -7.5 v 7.5 7.5 h -7.5 -7.5 v 7.5 7.5 h 7.5 7.5 v 7.5 7.5 h -7.5 -7.5 v 7.5 7.5 h -7.5 -7.5 v -7.5 -7.5 h -7.5 -7.5 v 7.5 7.5 h -7.5 -7.5 z m 15,-15 V 675 h 7.5 7.5 v 7.5 7.5 h 7.5 7.5 v -7.5 -7.5 h -7.5 -7.5 v -7.5 -7.5 h 7.5 7.5 v -7.5 -7.5 h -7.5 -7.5 v 7.5 7.5 h -7.5 -7.5 v -7.5 -7.5 h -7.5 -7.5 v 7.5 7.5 h 7.5 7.5 v 7.5 7.5 h -7.5 -7.5 v 7.5 7.5 h 7.5 7.5 z m 120,0 V 675 h -7.5 -7.5 v -7.5 -7.5 h 7.5 7.5 v -7.5 -7.5 h -7.5 -7.5 v 7.5 7.5 h -7.5 -7.5 v -7.5 -7.5 h -7.5 -7.5 v 7.5 7.5 h 7.5 7.5 v 7.5 7.5 h 7.5 7.5 v 7.5 7.5 h 7.5 7.5 z m 90,0 V 675 h 7.5 7.5 v 7.5 7.5 h 7.5 7.5 v -7.5 -7.5 h -7.5 -7.5 v -7.5 -7.5 h 7.5 7.5 v -7.5 -7.5 h -7.5 -7.5 v 7.5 7.5 h -7.5 -7.5 v -7.5 -7.5 h -7.5 -7.5 v 7.5 7.5 h -7.5 -7.5 v -7.5 -7.5 h -7.5 -7.5 v 7.5 7.5 h 7.5 7.5 v 7.5 7.5 h 7.5 7.5 v 7.5 7.5 h 7.5 7.5 z m -15,-15 V 660 h 7.5 7.5 v 7.5 7.5 h -7.5 -7.5 z m -195,-45 V 615 h -7.5 -7.5 v 7.5 7.5 h 7.5 7.5 z m 30,0 V 615 h -7.5 -7.5 v 7.5 7.5 h 7.5 7.5 z m 30,0 V 615 h -7.5 -7.5 v 7.5 7.5 h 7.5 7.5 z m 90,0 V 615 h -7.5 -7.5 v 7.5 7.5 h 7.5 7.5 z m 30,0 V 615 h -7.5 -7.5 v 7.5 7.5 h 7.5 7.5 z m 30,0 V 615 h -7.5 -7.5 v 7.5 7.5 h 7.5 7.5 z m 30,0 V 615 h -7.5 -7.5 v 7.5 7.5 h 7.5 7.5 z m 75,75 V 690 h -7.5 -7.5 v -7.5 -7.5 h 7.5 7.5 v -7.5 -7.5 h -7.5 -7.5 V 607.5 555 h 15 15 v -15 -15 h 97.5 97.5 v 7.5 7.5 h 15 15 v 60 60 h -7.5 -7.5 v 7.5 7.5 h 7.5 7.5 v 7.5 7.5 h -7.5 -7.5 v 7.5 7.5 h -7.5 -7.5 v -7.5 -7.5 h -7.5 -7.5 v 7.5 7.5 h -7.5 -7.5 v -7.5 -7.5 h -7.5 -7.5 v 7.5 7.5 h -7.5 -7.5 v -7.5 -7.5 h 7.5 7.5 v -7.5 -7.5 h -7.5 -7.5 v -7.5 -7.5 h -7.5 -7.5 v -7.5 -7.5 h 7.5 7.5 v 7.5 7.5 h 7.5 7.5 v -45 -45 h -52.5 -52.5 v 45 45 h -7.5 -7.5 v 7.5 7.5 h 7.5 7.5 v 7.5 7.5 h -7.5 -7.5 v 7.5 7.5 h -7.5 -7.5 v -7.5 -7.5 h -7.5 -7.5 v 7.5 7.5 h -7.5 -7.5 z m 15,-15 V 675 h 7.5 7.5 v 7.5 7.5 h 7.5 7.5 v -7.5 -7.5 h -7.5 -7.5 v -7.5 -7.5 h 7.5 7.5 v -7.5 -7.5 h -7.5 -7.5 v 7.5 7.5 h -7.5 -7.5 v -7.5 -7.5 h -7.5 -7.5 v 7.5 7.5 h 7.5 7.5 v 7.5 7.5 h -7.5 -7.5 v 7.5 7.5 h 7.5 7.5 z m 180,0 V 675 h 7.5 7.5 v 7.5 7.5 h 7.5 7.5 v -7.5 -7.5 h -7.5 -7.5 v -7.5 -7.5 h 7.5 7.5 v -7.5 -7.5 h -7.5 -7.5 v 7.5 7.5 h -7.5 -7.5 v -7.5 -7.5 h -7.5 -7.5 v 7.5 7.5 h -7.5 -7.5 v 7.5 7.5 h 7.5 7.5 v 7.5 7.5 h 7.5 7.5 z m -15,-15 V 660 h 7.5 7.5 v 7.5 7.5 h -7.5 -7.5 z m -165,-45 V 615 h -7.5 -7.5 v 7.5 7.5 h 7.5 7.5 z m 30,0 V 615 h -7.5 -7.5 v 7.5 7.5 h 7.5 7.5 z m 150,0 V 615 h -7.5 -7.5 v 7.5 7.5 h 7.5 7.5 z m 30,0 V 615 h -7.5 -7.5 v 7.5 7.5 h 7.5 7.5 z m 75,75 V 690 h -7.5 -7.5 v -7.5 -7.5 h 7.5 7.5 v -7.5 -7.5 h -7.5 -7.5 V 607.5 555 h 15 15 v -15 -15 h 97.5 97.5 v 7.5 7.5 h 15 15 v 60 60 h -7.5 -7.5 v 7.5 7.5 h 7.5 7.5 v 7.5 7.5 h -7.5 -7.5 v 7.5 7.5 h -7.5 -7.5 v -7.5 -7.5 h -7.5 -7.5 v 7.5 7.5 h -7.5 -7.5 v -7.5 -7.5 h -7.5 -7.5 v -7.5 -7.5 h 7.5 7.5 v -7.5 -7.5 h -7.5 -7.5 v -45 -45 h -52.5 -52.5 v 45 45 h -7.5 -7.5 v 7.5 7.5 h 7.5 7.5 v 7.5 7.5 h -7.5 -7.5 v 7.5 7.5 h -7.5 -7.5 v -7.5 -7.5 h -7.5 -7.5 v 7.5 7.5 h -7.5 -7.5 z m 15,-15 V 675 h 7.5 7.5 v 7.5 7.5 h 7.5 7.5 v -7.5 -7.5 h -7.5 -7.5 v -7.5 -7.5 h 7.5 7.5 v -7.5 -7.5 h -7.5 -7.5 v 7.5 7.5 h -7.5 -7.5 v -7.5 -7.5 h -7.5 -7.5 v 7.5 7.5 h 7.5 7.5 v 7.5 7.5 h -7.5 -7.5 v 7.5 7.5 h 7.5 7.5 z m 180,0 V 675 h 7.5 7.5 v 7.5 7.5 h 7.5 7.5 v -7.5 -7.5 h -7.5 -7.5 v -7.5 -7.5 h 7.5 7.5 v -7.5 -7.5 h -7.5 -7.5 v 7.5 7.5 h -7.5 -7.5 v -7.5 -7.5 h -7.5 -7.5 v 7.5 7.5 h 7.5 7.5 v 7.5 7.5 h -7.5 -7.5 v 7.5 7.5 h 7.5 7.5 z m -180,-60 V 615 h -7.5 -7.5 v 7.5 7.5 h 7.5 7.5 z m 30,0 V 615 h -7.5 -7.5 v 7.5 7.5 h 7.5 7.5 z m 150,0 V 615 h -7.5 -7.5 v 7.5 7.5 h 7.5 7.5 z m 30,0 V 615 h -7.5 -7.5 v 7.5 7.5 h 7.5 7.5 z m 75,75 V 690 h -7.5 -7.5 v -7.5 -7.5 h 7.5 7.5 v -7.5 -7.5 h -7.5 -7.5 V 592.5 525 h 37.5 37.5 v 67.5 67.5 h -7.5 -7.5 v 7.5 7.5 h 7.5 7.5 v 7.5 7.5 h -7.5 -7.5 v 7.5 7.5 h -7.5 -7.5 v -7.5 -7.5 h -7.5 -7.5 v 7.5 7.5 h -7.5 -7.5 z m 15,-15 V 675 h 7.5 7.5 v 7.5 7.5 h 7.5 7.5 v -7.5 -7.5 h -7.5 -7.5 v -7.5 -7.5 h 7.5 7.5 v -7.5 -7.5 h -7.5 -7.5 v 7.5 7.5 h -7.5 -7.5 v -7.5 -7.5 h -7.5 -7.5 v 7.5 7.5 h 7.5 7.5 v 7.5 7.5 h -7.5 -7.5 v 7.5 7.5 h 7.5 7.5 z m 0,-60 V 615 h -7.5 -7.5 v 7.5 7.5 h 7.5 7.5 z m 30,0 V 615 h -7.5 -7.5 v 7.5 7.5 h 7.5 7.5 z m 105,75 V 690 h 7.5 7.5 v -7.5 -7.5 h -7.5 -7.5 v -7.5 -7.5 h -7.5 -7.5 v -7.5 -7.5 h 7.5 7.5 v 7.5 7.5 h 7.5 7.5 V 592.5 525 h 37.5 37.5 v 67.5 67.5 h -7.5 -7.5 v 7.5 7.5 h 7.5 7.5 v 7.5 7.5 h -7.5 -7.5 v 7.5 7.5 h -7.5 -7.5 v -7.5 -7.5 h -7.5 -7.5 v 7.5 7.5 h -7.5 -7.5 v -7.5 -7.5 h -7.5 -7.5 v 7.5 7.5 h -7.5 -7.5 z m 45,-15 V 675 h 7.5 7.5 v 7.5 7.5 h 7.5 7.5 v -7.5 -7.5 h -7.5 -7.5 v -7.5 -7.5 h 7.5 7.5 v -7.5 -7.5 h -7.5 -7.5 v 7.5 7.5 h -7.5 -7.5 v -7.5 -7.5 h -7.5 -7.5 v 7.5 7.5 h -7.5 -7.5 v 7.5 7.5 h 7.5 7.5 v 7.5 7.5 h 7.5 7.5 z m -15,-15 V 660 h 7.5 7.5 v 7.5 7.5 h -7.5 -7.5 z m 15,-45 V 615 h -7.5 -7.5 v 7.5 7.5 h 7.5 7.5 z m 30,0 V 615 h -7.5 -7.5 v 7.5 7.5 h 7.5 7.5 z m -1650,30 V 645 h 7.5 7.5 v 7.5 7.5 h -7.5 -7.5 z m 30,0 V 645 h 7.5 7.5 v 7.5 7.5 h -7.5 -7.5 z m 30,0 V 645 h 7.5 7.5 v 7.5 7.5 h -7.5 -7.5 z m 840,0 V 645 h 7.5 7.5 v 7.5 7.5 h -7.5 -7.5 z m 30,0 V 645 h 7.5 7.5 v 7.5 7.5 h -7.5 -7.5 z m 570,0 V 645 h 7.5 7.5 v 7.5 7.5 h -7.5 -7.5 z m 30,0 V 645 h 7.5 7.5 v 7.5 7.5 h -7.5 -7.5 z" id="path5"/>
      <path style="fill:#aa8508" d="m 1860,1035 v -15 h -15 -15 v -45 -45 h 15 15 v 45 45 h 15 15 v -45 -45 h 15 15 v 45 45 h -15 -15 v 15 15 h -15 -15 z" id="path4"/>
      <path style="fill:#1c3842" d="m 495,735 v -45 h 7.5 7.5 v -7.5 -7.5 h -7.5 -7.5 v -7.5 -7.5 h 7.5 7.5 v -7.5 -7.5 h 7.5 7.5 v 7.5 7.5 h 7.5 7.5 v -7.5 -7.5 h 7.5 7.5 v 7.5 7.5 h 7.5 7.5 v 7.5 7.5 h -7.5 -7.5 v 7.5 7.5 h 7.5 7.5 v 22.5 22.5 h 7.5 7.5 v -7.5 -7.5 h 7.5 7.5 v 7.5 7.5 h 7.5 7.5 v -7.5 -7.5 h 7.5 7.5 v 7.5 7.5 h 7.5 7.5 v -7.5 -7.5 h 7.5 7.5 v -7.5 -7.5 h 7.5 7.5 v -7.5 -7.5 h 7.5 7.5 v -7.5 -7.5 h -7.5 -7.5 v -7.5 -7.5 h 7.5 7.5 v -7.5 -7.5 h 7.5 7.5 v 7.5 7.5 h 7.5 7.5 v -7.5 -7.5 h 7.5 7.5 v 7.5 7.5 h 7.5 7.5 v 7.5 7.5 h -7.5 -7.5 v 7.5 7.5 h 7.5 7.5 v 15 15 h -15 -15 v 15 15 h -15 -15 v 15 15 H 592.5 495 Z m 30,-7.5 V 720 h -7.5 -7.5 v 7.5 7.5 h 7.5 7.5 z m 30,0 V 720 h -7.5 -7.5 v 7.5 7.5 h 7.5 7.5 z m 120,0 V 720 h -7.5 -7.5 v 7.5 7.5 h 7.5 7.5 z m 30,0 V 720 h -7.5 -7.5 v 7.5 7.5 h 7.5 7.5 z m -180,-30 V 690 h 7.5 7.5 v 7.5 7.5 h 7.5 7.5 v -7.5 -7.5 h -7.5 -7.5 v -7.5 -7.5 h 7.5 7.5 v -7.5 -7.5 h -7.5 -7.5 v 7.5 7.5 h -7.5 -7.5 v -7.5 -7.5 h -7.5 -7.5 v 7.5 7.5 h 7.5 7.5 v 7.5 7.5 h -7.5 -7.5 v 7.5 7.5 h 7.5 7.5 z m 180,0 V 690 h 7.5 7.5 v 7.5 7.5 h 7.5 7.5 v -7.5 -7.5 h -7.5 -7.5 v -7.5 -7.5 h 7.5 7.5 v -7.5 -7.5 h -7.5 -7.5 v 7.5 7.5 h -7.5 -7.5 v -7.5 -7.5 h -7.5 -7.5 v 7.5 7.5 h 7.5 7.5 v 7.5 7.5 h -7.5 -7.5 v 7.5 7.5 h 7.5 7.5 z m 90,37.5 v -45 h 7.5 7.5 v -7.5 -7.5 h -7.5 -7.5 v -7.5 -7.5 h 7.5 7.5 v -7.5 -7.5 h 7.5 7.5 v 7.5 7.5 h 7.5 7.5 v -7.5 -7.5 h 7.5 7.5 v 7.5 7.5 h 7.5 7.5 v -7.5 -7.5 h 7.5 7.5 v 7.5 7.5 h -7.5 -7.5 v 7.5 7.5 h -7.5 -7.5 v 7.5 7.5 h 7.5 7.5 v 45 45 H 832.5 795 Z m 30,-7.5 V 720 h -7.5 -7.5 v 7.5 7.5 h 7.5 7.5 z m 30,0 V 720 h -7.5 -7.5 v 7.5 7.5 h 7.5 7.5 z m -30,-30 V 690 h 7.5 7.5 v 7.5 7.5 h 7.5 7.5 v -7.5 -7.5 h -7.5 -7.5 v -7.5 -7.5 h 7.5 7.5 v -7.5 -7.5 h -7.5 -7.5 v 7.5 7.5 h -7.5 -7.5 v -7.5 -7.5 h -7.5 -7.5 v 7.5 7.5 h 7.5 7.5 v 7.5 7.5 h -7.5 -7.5 v 7.5 7.5 h 7.5 7.5 z M 975,735 v -45 h 7.5 7.5 v -7.5 -7.5 h -7.5 -7.5 v -7.5 -7.5 h -7.5 -7.5 v -7.5 -7.5 h 7.5 7.5 v 7.5 7.5 h 7.5 7.5 v -7.5 -7.5 h 7.5 7.5 v 7.5 7.5 h 7.5 7.5 v -7.5 -7.5 h 7.5 7.5 v 7.5 7.5 h 7.5 7.5 v 7.5 7.5 h -7.5 -7.5 v 7.5 7.5 h 7.5 7.5 v 45 45 H 1012.5 975 Z m 30,-7.5 V 720 h -7.5 -7.5 v 7.5 7.5 h 7.5 7.5 z m 30,0 V 720 h -7.5 -7.5 v 7.5 7.5 h 7.5 7.5 z m -30,-30 V 690 h 7.5 7.5 v 7.5 7.5 h 7.5 7.5 v -7.5 -7.5 h -7.5 -7.5 v -7.5 -7.5 h 7.5 7.5 v -7.5 -7.5 h -7.5 -7.5 v 7.5 7.5 h -7.5 -7.5 v -7.5 -7.5 h -7.5 -7.5 v 7.5 7.5 h 7.5 7.5 v 7.5 7.5 h -7.5 -7.5 v 7.5 7.5 h 7.5 7.5 z m 90,60 V 735 h 45 45 V 712.5 690 h 7.5 7.5 v -7.5 -7.5 h -7.5 -7.5 v -7.5 -7.5 h 7.5 7.5 v -7.5 -7.5 h 7.5 7.5 v 7.5 7.5 h 7.5 7.5 v 7.5 7.5 h -7.5 -7.5 v 7.5 7.5 h 7.5 7.5 v 22.5 22.5 h 37.5 37.5 v -7.5 -7.5 h 7.5 7.5 v 30 30 H 1207.5 1095 Z m 120,-30 V 720 h -7.5 -7.5 v 7.5 7.5 h 7.5 7.5 z m 0,-30 V 690 h -7.5 -7.5 v 7.5 7.5 h 7.5 7.5 z m 0,-30 V 660 h -7.5 -7.5 v 7.5 7.5 h 7.5 7.5 z m 150,67.5 v -45 h 7.5 7.5 v -7.5 -7.5 h -7.5 -7.5 v -7.5 -7.5 h 7.5 7.5 v -7.5 -7.5 h 7.5 7.5 v 7.5 7.5 h 7.5 7.5 v -7.5 -7.5 h 7.5 7.5 v 7.5 7.5 h 7.5 7.5 v -7.5 -7.5 h 7.5 7.5 v 7.5 7.5 h -7.5 -7.5 v 7.5 7.5 h -7.5 -7.5 v 7.5 7.5 h 7.5 7.5 v 45 45 h -37.5 -37.5 z m 30,-7.5 V 720 h -7.5 -7.5 v 7.5 7.5 h 7.5 7.5 z m 30,0 V 720 h -7.5 -7.5 v 7.5 7.5 h 7.5 7.5 z m -30,-30 V 690 h 7.5 7.5 v 7.5 7.5 h 7.5 7.5 v -7.5 -7.5 h -7.5 -7.5 v -7.5 -7.5 h 7.5 7.5 v -7.5 -7.5 h -7.5 -7.5 v 7.5 7.5 h -7.5 -7.5 v -7.5 -7.5 h -7.5 -7.5 v 7.5 7.5 h 7.5 7.5 v 7.5 7.5 h -7.5 -7.5 v 7.5 7.5 h 7.5 7.5 z m 165,60 V 735 h 7.5 7.5 v -7.5 -7.5 h -7.5 -7.5 v -7.5 -7.5 h 7.5 7.5 v -7.5 -7.5 h -7.5 -7.5 v -7.5 -7.5 h 7.5 7.5 v -7.5 -7.5 h -7.5 -7.5 v -7.5 -7.5 h 7.5 7.5 v 7.5 7.5 h 7.5 7.5 v -7.5 -7.5 h 7.5 7.5 v 7.5 7.5 h 7.5 7.5 v -7.5 -7.5 h 7.5 7.5 v 7.5 7.5 h 7.5 7.5 v 7.5 7.5 h -7.5 -7.5 v 7.5 7.5 h 7.5 7.5 v 45 45 h -45 -45 z m 45,-30 V 720 h -7.5 -7.5 v 7.5 7.5 h 7.5 7.5 z m 30,0 V 720 h -7.5 -7.5 v 7.5 7.5 h 7.5 7.5 z m -30,-30 V 690 h 7.5 7.5 v 7.5 7.5 h 7.5 7.5 v -7.5 -7.5 h -7.5 -7.5 v -7.5 -7.5 h 7.5 7.5 v -7.5 -7.5 h -7.5 -7.5 v 7.5 7.5 h -7.5 -7.5 v -7.5 -7.5 h -7.5 -7.5 v 7.5 7.5 h -7.5 -7.5 v 7.5 7.5 h 7.5 7.5 v 7.5 7.5 h 7.5 7.5 z m -15,-15 V 675 h 7.5 7.5 v 7.5 7.5 h -7.5 -7.5 z m 105,52.5 v -45 h 7.5 7.5 v -7.5 -7.5 h -7.5 -7.5 v -7.5 -7.5 h 7.5 7.5 v -7.5 -7.5 h 7.5 7.5 v 7.5 7.5 h 7.5 7.5 v -7.5 -7.5 h 7.5 7.5 v 7.5 7.5 h 7.5 7.5 v -7.5 -7.5 h 7.5 7.5 v 7.5 7.5 h -7.5 -7.5 v 7.5 7.5 h -7.5 -7.5 v 7.5 7.5 h 7.5 7.5 v 45 45 h -37.5 -37.5 z m 30,-7.5 V 720 h -7.5 -7.5 v 7.5 7.5 h 7.5 7.5 z m 30,0 V 720 h -7.5 -7.5 v 7.5 7.5 h 7.5 7.5 z m -30,-30 V 690 h 7.5 7.5 v 7.5 7.5 h 7.5 7.5 v -7.5 -7.5 h -7.5 -7.5 v -7.5 -7.5 h 7.5 7.5 v -7.5 -7.5 h -7.5 -7.5 v 7.5 7.5 h -7.5 -7.5 v -7.5 -7.5 h -7.5 -7.5 v 7.5 7.5 h 7.5 7.5 v 7.5 7.5 h -7.5 -7.5 v 7.5 7.5 h 7.5 7.5 z m 135,60 V 735 h 7.5 7.5 v -7.5 -7.5 h -7.5 -7.5 v -7.5 -7.5 h 7.5 7.5 v -7.5 -7.5 h -7.5 -7.5 v -7.5 -7.5 h 7.5 7.5 v -7.5 -7.5 h -7.5 -7.5 v -7.5 -7.5 h 7.5 7.5 v 7.5 7.5 h 7.5 7.5 v -7.5 -7.5 h 7.5 7.5 v 7.5 7.5 h 7.5 7.5 v -7.5 -7.5 h 7.5 7.5 v 7.5 7.5 h 7.5 7.5 v 7.5 7.5 h -7.5 -7.5 v 7.5 7.5 h 7.5 7.5 v 45 45 h -45 -45 z m 45,-30 V 720 h -7.5 -7.5 v 7.5 7.5 h 7.5 7.5 z m 30,0 V 720 h -7.5 -7.5 v 7.5 7.5 h 7.5 7.5 z m -30,-30 V 690 h 7.5 7.5 v 7.5 7.5 h 7.5 7.5 v -7.5 -7.5 h -7.5 -7.5 v -7.5 -7.5 h 7.5 7.5 v -7.5 -7.5 h -7.5 -7.5 v 7.5 7.5 h -7.5 -7.5 v -7.5 -7.5 h -7.5 -7.5 v 7.5 7.5 h -7.5 -7.5 v 7.5 7.5 h 7.5 7.5 v 7.5 7.5 h 7.5 7.5 z m -15,-15 V 675 h 7.5 7.5 v 7.5 7.5 h -7.5 -7.5 z m 120,82.5 v -15 h -7.5 -7.5 v -30 -30 h 7.5 7.5 v -7.5 -7.5 h -7.5 -7.5 v -7.5 -7.5 h 7.5 7.5 v -7.5 -7.5 h 7.5 7.5 v 7.5 7.5 h 7.5 7.5 v -7.5 -7.5 h 7.5 7.5 v 7.5 7.5 h 7.5 7.5 v 7.5 7.5 h -7.5 -7.5 v 7.5 7.5 h 7.5 7.5 v 22.5 22.5 h 7.5 7.5 v -7.5 -7.5 h 7.5 7.5 v 7.5 7.5 h 7.5 7.5 v -7.5 -7.5 h 7.5 7.5 v 7.5 7.5 h 7.5 7.5 v -7.5 -7.5 h 7.5 7.5 v 7.5 7.5 h 7.5 7.5 V 712.5 690 h 7.5 7.5 v -7.5 -7.5 h -7.5 -7.5 v -7.5 -7.5 h 7.5 7.5 v -7.5 -7.5 h 7.5 7.5 v 7.5 7.5 h 7.5 7.5 v -7.5 -7.5 h 7.5 7.5 v 7.5 7.5 h 7.5 7.5 v 7.5 7.5 h -7.5 -7.5 v 7.5 7.5 h 7.5 7.5 v 30 30 h -15 -15 v 15 15 h -105 -105 z m 15,-37.5 V 720 h -7.5 -7.5 v 7.5 7.5 h 7.5 7.5 z m 30,0 V 720 h -7.5 -7.5 v 7.5 7.5 h 7.5 7.5 z m 150,0 V 720 h -7.5 -7.5 v 7.5 7.5 h 7.5 7.5 z m 30,0 V 720 h -7.5 -7.5 v 7.5 7.5 h 7.5 7.5 z m -210,-30 V 690 h 7.5 7.5 v 7.5 7.5 h 7.5 7.5 v -7.5 -7.5 h -7.5 -7.5 v -7.5 -7.5 h 7.5 7.5 v -7.5 -7.5 h -7.5 -7.5 v 7.5 7.5 h -7.5 -7.5 v -7.5 -7.5 h -7.5 -7.5 v 7.5 7.5 h 7.5 7.5 v 7.5 7.5 h -7.5 -7.5 v 7.5 7.5 h 7.5 7.5 z m 180,0 V 690 h 7.5 7.5 v 7.5 7.5 h 7.5 7.5 v -7.5 -7.5 h -7.5 -7.5 v -7.5 -7.5 h 7.5 7.5 v -7.5 -7.5 h -7.5 -7.5 v 7.5 7.5 h -7.5 -7.5 v -7.5 -7.5 h -7.5 -7.5 v 7.5 7.5 h 7.5 7.5 v 7.5 7.5 h -7.5 -7.5 v 7.5 7.5 h 7.5 7.5 z m 90,37.5 v -45 h 7.5 7.5 v -7.5 -7.5 h -7.5 -7.5 v -7.5 -7.5 h 7.5 7.5 v -7.5 -7.5 h 7.5 7.5 v 7.5 7.5 h 7.5 7.5 v -7.5 -7.5 h 7.5 7.5 v 7.5 7.5 h 7.5 7.5 v -7.5 -7.5 h 7.5 7.5 v 7.5 7.5 h -7.5 -7.5 v 7.5 7.5 h -7.5 -7.5 v 7.5 7.5 h 7.5 7.5 v 45 45 h -37.5 -37.5 z m 30,-7.5 V 720 h -7.5 -7.5 v 7.5 7.5 h 7.5 7.5 z m 30,0 V 720 h -7.5 -7.5 v 7.5 7.5 h 7.5 7.5 z m -30,-30 V 690 h 7.5 7.5 v 7.5 7.5 h 7.5 7.5 v -7.5 -7.5 h -7.5 -7.5 v -7.5 -7.5 h 7.5 7.5 v -7.5 -7.5 h -7.5 -7.5 v 7.5 7.5 h -7.5 -7.5 v -7.5 -7.5 h -7.5 -7.5 v 7.5 7.5 h 7.5 7.5 v 7.5 7.5 h -7.5 -7.5 v 7.5 7.5 h 7.5 7.5 z m 135,60 V 735 h 7.5 7.5 v -7.5 -7.5 h -7.5 -7.5 v -7.5 -7.5 h 7.5 7.5 v -7.5 -7.5 h -7.5 -7.5 v -7.5 -7.5 h 7.5 7.5 v -7.5 -7.5 h -7.5 -7.5 v -7.5 -7.5 h 7.5 7.5 v 7.5 7.5 h 7.5 7.5 v -7.5 -7.5 h 7.5 7.5 v 7.5 7.5 h 7.5 7.5 v -7.5 -7.5 h 7.5 7.5 v 7.5 7.5 h 7.5 7.5 v 7.5 7.5 h -7.5 -7.5 v 7.5 7.5 h 7.5 7.5 v 45 45 h -45 -45 z m 45,-30 V 720 h -7.5 -7.5 v 7.5 7.5 h 7.5 7.5 z m 30,0 V 720 h -7.5 -7.5 v 7.5 7.5 h 7.5 7.5 z m -30,-30 V 690 h 7.5 7.5 v 7.5 7.5 h 7.5 7.5 v -7.5 -7.5 h -7.5 -7.5 v -7.5 -7.5 h 7.5 7.5 v -7.5 -7.5 h -7.5 -7.5 v 7.5 7.5 h -7.5 -7.5 v -7.5 -7.5 h -7.5 -7.5 v 7.5 7.5 h -7.5 -7.5 v 7.5 7.5 h 7.5 7.5 v 7.5 7.5 h 7.5 7.5 z m -15,-15 V 675 h 7.5 7.5 v 7.5 7.5 h -7.5 -7.5 z m -1005,15 V 690 h -7.5 -7.5 v -7.5 -7.5 h 7.5 7.5 v -7.5 -7.5 h -7.5 -7.5 v -7.5 -7.5 h 7.5 7.5 v 7.5 7.5 h 7.5 7.5 v -7.5 -7.5 h 7.5 7.5 v 7.5 7.5 h 7.5 7.5 v -7.5 -7.5 h 7.5 7.5 v 7.5 7.5 h -7.5 -7.5 v 7.5 7.5 h -7.5 -7.5 v 7.5 7.5 h -7.5 -7.5 v 7.5 7.5 h -7.5 -7.5 z m 15,-15 V 675 h 7.5 7.5 v -7.5 -7.5 h -7.5 -7.5 v 7.5 7.5 h -7.5 -7.5 v 7.5 7.5 h 7.5 7.5 z m -600,-30 V 645 h 7.5 7.5 v 7.5 7.5 h -7.5 -7.5 z m 30,0 V 645 h 7.5 7.5 v 7.5 7.5 h -7.5 -7.5 z m 870,0 V 645 h 7.5 7.5 v 7.5 7.5 h -7.5 -7.5 z m 30,0 V 645 h 7.5 7.5 v 7.5 7.5 h -7.5 -7.5 z m 570,0 V 645 h 7.5 7.5 v 7.5 7.5 h -7.5 -7.5 z m 30,0 V 645 h 7.5 7.5 v 7.5 7.5 h -7.5 -7.5 z M 510,622.5 V 615 h 7.5 7.5 v 7.5 7.5 h -7.5 -7.5 z m 30,0 V 615 h 7.5 7.5 v 7.5 7.5 h -7.5 -7.5 z m 150,0 V 615 h 7.5 7.5 v 7.5 7.5 h -7.5 -7.5 z m 30,0 V 615 h 7.5 7.5 v 7.5 7.5 h -7.5 -7.5 z m 90,0 V 615 h 7.5 7.5 v 7.5 7.5 h -7.5 -7.5 z m 30,0 V 615 h 7.5 7.5 v 7.5 7.5 h -7.5 -7.5 z m 150,0 V 615 h 7.5 7.5 v 7.5 7.5 h -7.5 -7.5 z m 30,0 V 615 h 7.5 7.5 v 7.5 7.5 h -7.5 -7.5 z m 180,0 V 615 h 7.5 7.5 v 7.5 7.5 h -7.5 -7.5 z m 180,0 V 615 h 7.5 7.5 v 7.5 7.5 h -7.5 -7.5 z m 30,0 V 615 h 7.5 7.5 v 7.5 7.5 h -7.5 -7.5 z m 30,0 V 615 h 7.5 7.5 v 7.5 7.5 h -7.5 -7.5 z m 30,0 V 615 h 7.5 7.5 v 7.5 7.5 h -7.5 -7.5 z m 30,0 V 615 h 7.5 7.5 v 7.5 7.5 h -7.5 -7.5 z m 30,0 V 615 h 7.5 7.5 v 7.5 7.5 h -7.5 -7.5 z m 30,0 V 615 h 7.5 7.5 v 7.5 7.5 h -7.5 -7.5 z m 30,0 V 615 h 7.5 7.5 v 7.5 7.5 h -7.5 -7.5 z m 30,0 V 615 h 7.5 7.5 v 7.5 7.5 h -7.5 -7.5 z m 90,0 V 615 h 7.5 7.5 v 7.5 7.5 h -7.5 -7.5 z m 30,0 V 615 h 7.5 7.5 v 7.5 7.5 h -7.5 -7.5 z m 150,0 V 615 h 7.5 7.5 v 7.5 7.5 h -7.5 -7.5 z m 30,0 V 615 h 7.5 7.5 v 7.5 7.5 h -7.5 -7.5 z m 90,0 V 615 h 7.5 7.5 v 7.5 7.5 h -7.5 -7.5 z m 30,0 V 615 h 7.5 7.5 v 7.5 7.5 h -7.5 -7.5 z m 150,0 V 615 h 7.5 7.5 v 7.5 7.5 h -7.5 -7.5 z m 30,0 V 615 h 7.5 7.5 v 7.5 7.5 h -7.5 -7.5 z m 90,0 V 615 h 7.5 7.5 v 7.5 7.5 h -7.5 -7.5 z m 30,0 V 615 h 7.5 7.5 v 7.5 7.5 h -7.5 -7.5 z m 150,0 V 615 h 7.5 7.5 v 7.5 7.5 h -7.5 -7.5 z m 30,0 V 615 h 7.5 7.5 v 7.5 7.5 h -7.5 -7.5 z" id="path3"/>
      <path style="fill:#000000" d="m 690,1095 v -15 h -15 -15 v -90 -90 h 15 15 v -15 -15 h 840 840 v 105 105 h -15 -15 v 15 15 H 1515 690 Z m 150,-90 v -45 h -30 -30 v 15 15 h 15 15 v 15 15 h -30 -30 v -45 -45 h 45 45 v -15 -15 h -60 -60 v 15 15 h -15 -15 v 45 45 h 15 15 v 15 15 h 60 60 z m 180,30 v -15 h -45 -45 v -15 -15 h 30 30 v -15 -15 h -30 -30 v -15 -15 h 45 45 v -15 -15 h -75 -75 v 75 75 h 75 75 z m 180,0 v -15 h -45 -45 v -15 -15 h 30 30 v -15 -15 h -30 -30 v -15 -15 h 45 45 v -15 -15 h -75 -75 v 75 75 h 75 75 z m 60,-15 v -30 h 15 15 v 15 15 h 15 15 v 15 15 h 30 30 v -15 -15 h -15 -15 v -15 -15 h -15 -15 v -15 -15 h 15 15 v -15 -15 h 15 15 v -15 -15 h -30 -30 v 15 15 h -15 -15 v 15 15 h -15 -15 v -30 -30 h -15 -15 v 75 75 h 15 15 z m 330,-15 v -45 h -45 -45 v -15 -15 h 45 45 v -15 -15 h -60 -60 v 45 45 h 45 45 v 15 15 h -45 -45 v 15 15 h 60 60 z m 150,-15 v -60 h 30 30 v -15 -15 h -90 -90 v 15 15 h 30 30 v 60 60 h 30 30 z m 210,45 v -15 h 15 15 v -45 -45 h -15 -15 v -15 -15 h -45 -45 v 15 15 h -15 -15 v 45 45 h 15 15 v 15 15 h 45 45 z m 90,0 v -15 h 30 30 v 15 15 h 30 30 v -15 -15 h -15 -15 v -15 -15 h 15 15 v -45 -45 h -75 -75 v 75 75 h 15 15 z m 0,-75 v -30 h 45 45 v 15 15 h -15 -15 v 15 15 h -30 -30 z m 300,75 v -15 h -45 -45 v -15 -15 h 30 30 v -15 -15 h -30 -30 v -15 -15 h 45 45 v -15 -15 h -75 -75 v 75 75 h 75 75 z m -900,-60 v -15 h -15 -15 v 15 15 h 15 15 z M 480,825 V 810 H 465 450 V 660 510 h 15 15 v -15 -15 h 105 105 v 15 15 h 15 15 v 15 15 h 30 30 v -15 -15 h 15 15 v -15 -15 h 315 315 v 7.5 7.5 h 7.5 7.5 v 7.5 7.5 h 7.5 7.5 v 15 15 h 7.5 7.5 v 7.5 7.5 h 15 15 v -7.5 -7.5 h 7.5 7.5 v -15 -15 h 7.5 7.5 v -7.5 -7.5 h 7.5 7.5 v -7.5 -7.5 h 180 180 v 15 15 h 30 30 v -15 -15 h 120 120 v 15 15 h 15 15 v -7.5 -7.5 h 7.5 7.5 v -7.5 -7.5 h 52.5 52.5 v 15 15 h 15 15 v 45 45 h 15 15 v -45 -45 h 15 15 v -15 -15 h 52.5 52.5 v 7.5 7.5 h 7.5 7.5 v 165 165 h -7.5 -7.5 v 7.5 7.5 h -60 -60 v -7.5 -7.5 h -7.5 -7.5 V 772.5 720 h -15 -15 v 52.5 52.5 h -7.5 -7.5 v 7.5 7.5 h -67.5 -67.5 v -15 -15 h -15 -15 v 15 15 h -195 -195 v -60 -60 h -15 -15 v 60 60 h -135 -135 v -60 -60 h -7.5 -7.5 v 7.5 7.5 h -15 -15 v -7.5 -7.5 h -7.5 -7.5 v 60 60 H 1200 930 v -60 -60 h -15 -15 v 60 60 h -75 -75 v -15 -15 h -15 -15 v 15 15 H 600 480 Z m 210,-60 v -15 h 15 15 v -15 -15 h 15 15 v -75 -75 h -15 -15 v -15 -15 h -15 -15 v -15 -15 h -90 -90 v 15 15 H 495 480 V 660 780 H 585 690 Z M 570,630 v -60 h 37.5 37.5 v 7.5 7.5 h 7.5 7.5 v 45 45 h -7.5 -7.5 v 7.5 7.5 H 607.5 570 Z m 60,0 V 600 H 607.5 585 v 30 30 h 22.5 22.5 z m 240,90 v -60 h 45 45 v 60 60 h 45 45 V 660 540 h -15 -15 V 525 510 H 915 810 v 15 15 h -15 -15 v 120 120 h 45 45 z m 0,-127.5 V 570 h 45 45 V 592.5 615 H 915 870 Z M 1320,750 v -30 h -45 -45 v -75 -75 h 45 45 v -30 -30 h -120 -120 v 30 30 h 45 45 v 75 75 h -45 -45 v 30 30 h 120 120 z m 120,-30 v -60 h 15 15 v 15 15 h 7.5 7.5 v 7.5 7.5 h 15 15 v -7.5 -7.5 h 7.5 7.5 v -15 -15 h 15 15 v 60 60 h 45 45 V 645 510 h -45 -45 v 15 15 h -7.5 -7.5 v 7.5 7.5 h -7.5 -7.5 v 15 15 h -7.5 -7.5 v 7.5 7.5 h -15 -15 v -7.5 -7.5 h -7.5 -7.5 v -15 -15 h -7.5 -7.5 v -7.5 -7.5 h -7.5 -7.5 v -15 -15 h -45 -45 v 135 135 h 45 45 z m 330,0 v -60 h 45 45 v 60 60 h 45 45 V 660 540 h -15 -15 v -15 -15 h -105 -105 v 15 15 h -15 -15 v 120 120 h 45 45 z m 0,-127.5 V 570 h 45 45 v 22.5 22.5 h -45 -45 z M 2220,765 v -15 h 15 15 V 645 540 h -15 -15 v -15 -15 h -105 -105 v 15 15 h -15 -15 v 105 105 h 15 15 v 15 15 h 105 105 z M 2070,637.5 V 570 h 45 45 v 67.5 67.5 h -45 -45 z m 60,15 V 615 h -22.5 -22.5 v 37.5 37.5 h 22.5 22.5 z m 240,67.5 v -60 h 45 45 v 60 60 h 45 45 V 645 510 h -45 -45 v 60 60 h -45 -45 v -60 -60 h -45 -45 v 135 135 h 45 45 z M 1140,645 v -45 h -30 -30 v 45 45 h 30 30 z m 180,0 v -45 h -30 -30 v 45 45 h 30 30 z" id="path2"/>
    </g>
  </g>
</svg>